<svg width="755" height="240" viewBox="0 0 755 240" fill="none" xmlns="http://www.w3.org/2000/svg">
<path d="M324.6 195L272.8 62.4C272.4 61 271 60 269.4 60C267.8 60 266.4 61 266 62.4L216.2 195C215.4 197 216.4 199 218.6 199.8C220 200.6 222.6 199.6 223.4 197.6L238.4 157.4H301.8L317.4 197.6C318.2 199.6 320.4 200.4 322.2 199.8C324.4 199 325.2 196.8 324.6 195ZM241.2 150L269.6 74.4L299 150H241.2ZM405.311 107.2C398.711 100.6 389.511 97 380.511 97C370.111 97 360.911 101 354.111 108.2C353.311 109 352.711 109.6 352.111 110.4V103.6C352.111 101.6 350.511 100 348.311 100C346.311 100 344.711 101.6 344.711 103.6V196.2C344.711 198.4 346.311 200 348.311 200C350.511 200 352.111 198.4 352.111 196.2V129.6C352.111 124.2 354.711 118 359.311 113.4C363.111 109.2 369.911 104.2 380.511 104.2C387.711 104.2 394.911 107.4 400.511 112.6C405.911 117.2 408.711 123.6 408.711 129.6V196.2C408.711 198.4 410.311 200 412.311 200C414.511 200 416.111 198.4 416.111 196.2V129.6C416.111 121.6 412.111 113.4 405.311 107.2ZM439.917 75.2C437.917 75.2 436.317 73.8 436.317 71.6V68.2C436.317 66 437.917 64.4 439.917 64.4C442.117 64.4 443.517 66 443.517 68.2V71.6C443.517 73.8 442.117 75.2 439.917 75.2ZM439.917 200C437.917 200 436.317 198.4 436.317 196.4V103.8C436.317 101.6 437.917 100 439.917 100C442.117 100 443.517 101.6 443.517 103.8V196.4C443.517 198.4 442.117 200 439.917 200ZM582.256 104.6C576.256 99.8 567.656 97.2 558.456 97.2C550.256 97.2 541.856 100.2 535.256 105.8C532.656 108 530.256 110.6 528.656 113.4C526.856 110 524.456 107 521.456 104.6C515.256 99.8 506.856 97.2 497.656 97.2C489.456 97.2 481.056 100.2 474.456 105.8C473.056 107 471.856 108 470.856 109.4V103.6C470.856 101.6 469.256 100 467.256 100C465.256 100 463.656 101.6 463.656 103.6V196.4C463.656 198.4 465.256 200 467.256 200C469.256 200 470.856 198.4 470.856 196.4V127C470.856 121.4 473.856 115.6 479.056 111.2C484.456 106.8 491.056 104.4 497.656 104.4C505.256 104.4 512.056 106.4 516.856 110.4C521.856 114.2 524.256 119.6 524.256 126C524.256 126.4 524.256 126.8 524.456 127.2V196.4C524.456 198.4 526.256 200 528.256 200C530.256 200 531.856 198.4 531.856 196.4V127C531.856 121.4 534.856 115.6 540.056 111.2C545.256 106.8 552.056 104.4 558.456 104.4C566.056 104.4 572.856 106.4 577.656 110.4C582.656 114.2 585.256 119.6 585.256 126V196.4C585.256 198.4 586.856 200 588.856 200C590.856 200 592.456 198.4 592.456 196.4V126C592.456 117.6 588.856 110 582.256 104.6ZM688.606 191.4C688.606 191.4 687.006 191.4 685.606 190.6C683.406 189.4 682.406 187.2 682.406 184.2C682.406 175.8 682.406 157.4 682.206 132.8C682.206 132 682.006 131.6 682.006 131.6C682.006 131.4 682.006 131.2 682.006 131V130.8C681.806 122.2 679.406 115 675.006 110C669.006 103.4 659.806 100 647.406 100C640.606 100 634.806 101 629.806 103C625.606 104.8 622.006 107.2 619.006 110.2C612.806 117 612.806 124 612.806 124.2C612.806 126.2 614.406 127.8 616.406 127.8C618.406 127.8 620.006 126.2 620.006 124.2C620.006 123.4 620.806 119 624.406 115.2C629.206 110 637.006 107.2 647.406 107.2C665.206 107.2 674.206 114.6 674.806 130C674.606 131 673.806 134 670.406 137C665.006 142 655.806 144.8 643.606 144.8C629.006 144.8 620.406 150.6 615.806 155.4C610.606 160.8 607.406 168 607.406 174.8C607.406 181.6 610.206 187.8 615.406 192.4C621.006 197.4 629.406 200 639.406 200C650.006 200 660.606 196.2 670.006 189C672.006 187.4 673.806 186 675.206 184.6C675.206 190 677.606 194.4 682.006 196.8C685.206 198.6 688.406 198.6 688.606 198.6C690.606 198.6 692.206 197 692.206 195C692.206 193 690.606 191.4 688.606 191.4ZM665.406 183.4C657.206 189.6 648.606 192.8 639.406 192.8C631.006 192.8 624.406 190.8 620.206 187C615.606 183 614.806 178.2 614.806 174.8C614.806 171 616.406 165.2 621.006 160.4C626.406 154.8 634.206 152 643.606 152C651.606 152 658.406 151 664.006 149C668.406 147.4 672.006 145.2 675.006 142.6C675.206 155.6 675.206 166.2 675.206 174C674.406 175.2 671.006 179.2 665.406 183.4ZM713.159 200C711.159 200 709.359 198.4 709.359 196.2V63.8C709.359 61.6 711.159 60 713.159 60C715.359 60 716.959 61.6 716.959 63.8V196.2C716.959 198.4 715.359 200 713.159 200ZM740.698 75.2C738.698 75.2 737.098 73.8 737.098 71.6V68.2C737.098 66 738.698 64.4 740.698 64.4C742.898 64.4 744.298 66 744.298 68.2V71.6C744.298 73.8 742.898 75.2 740.698 75.2ZM740.698 200C738.698 200 737.098 198.4 737.098 196.4V103.8C737.098 101.6 738.698 100 740.698 100C742.898 100 744.298 101.6 744.298 103.8V196.4C744.298 198.4 742.898 200 740.698 200Z" fill="#3CDFD9"/>
<rect width="191" height="191" transform="translate(0 29)" fill="white"/>
<rect y="29" width="191" height="191" fill="white"/>
<path d="M179.809 136.236C179.809 160.012 162.376 196.846 154.173 196.846C145.97 196.846 137.108 176.727 121.359 157.356C109.258 142.471 95.3135 122.703 72.1388 122.703C77.8812 171.914 46.7083 201.031 36.454 196.846C26.1998 192.662 10.8184 160.012 10.8184 136.236C10.8184 89.5788 48.6481 51.7559 95.3135 51.7559C141.979 51.7559 179.809 89.5788 179.809 136.236Z" fill="#3CDFD9"/>
</svg>
