<svg width="29" height="29" viewBox="0 0 29 29" fill="none" xmlns="http://www.w3.org/2000/svg">
<path fill-rule="evenodd" clip-rule="evenodd" d="M25.8503 3.21586C23.8191 1.14236 21.1191 0.000488281 18.2469 0.000488281C15.3742 0.000488281 12.6736 1.14236 10.643 3.21586C6.79193 7.14657 6.48891 13.3375 9.71324 17.6379L5.21291 22.232L3.0166 19.9899C2.46205 19.4232 1.56246 19.4232 1.00791 19.9899C0.452767 20.5561 0.452767 21.4738 1.00791 22.0405L3.20422 24.2826L1.61395 25.9066C1.05881 26.4727 1.05881 27.391 1.61395 27.9571C1.89093 28.2404 2.25491 28.3818 2.6183 28.3818C2.98169 28.3818 3.34566 28.2404 3.62264 27.9571L5.21291 26.3331L7.40862 28.5746C7.6856 28.8579 8.04958 28.9993 8.41297 28.9993C8.77636 28.9993 9.14034 28.8579 9.41732 28.5746C9.97246 28.0084 9.97246 27.0901 9.41732 26.524L7.2216 24.2826L11.7213 19.6885C13.5874 21.1518 15.8547 21.9535 18.2475 21.9535C21.1197 21.9535 23.8197 20.8116 25.8508 18.7387C27.882 16.6658 29 13.909 29 10.9776C29 8.04557 27.8808 5.28876 25.8503 3.21586ZM18.3002 19.0553C13.9591 19.0553 10.4406 15.4635 10.4406 11.0326C10.4406 6.60161 13.9591 3.00924 18.3002 3.00924C22.6407 3.00924 26.1598 6.60101 26.1598 11.0326C26.1598 15.4635 22.6407 19.0553 18.3002 19.0553Z" fill="#FF7EA2"/>
</svg>
