<svg width="33" height="33" viewBox="0 0 33 33" fill="none" xmlns="http://www.w3.org/2000/svg">
<g clip-path="url(#clip0)">
<path fill-rule="evenodd" clip-rule="evenodd" d="M31.4603 2.44767C31.3888 1.69742 30.799 1.09922 30.0448 1.01214L21.35 0.0100101C20.4663 -0.088461 19.6703 0.537199 19.5671 1.41339C19.4653 2.29025 20.0976 3.08271 20.98 3.1852L26.3711 3.80617L19.4094 10.7239C17.3272 9.1417 14.8008 8.27288 12.1349 8.27288C8.92571 8.27288 5.90861 9.51482 3.63904 11.7703C-1.0457 16.4266 -1.0457 24.0015 3.63904 28.6564C5.90861 30.9119 8.92571 32.1538 12.1349 32.1538C15.3441 32.1538 18.3612 30.9119 20.6308 28.6564C22.9004 26.4016 24.1508 23.4026 24.1508 20.2133C24.1508 17.564 23.2765 15.0533 21.6837 12.9841L28.5834 6.12728L29.0714 11.1969C29.1503 12.0242 29.8506 12.6431 30.6696 12.6431C30.7208 12.6431 30.7727 12.6411 30.8246 12.6358C31.7083 12.552 32.3568 11.7716 32.2719 10.8927L31.4603 2.44767V2.44767ZM11.9758 29.055C7.05451 29.055 3.06474 25.0893 3.06474 20.1986C3.06474 15.3072 7.05451 11.3422 11.9758 11.3422C16.8985 11.3422 20.8876 15.3072 20.8876 20.1986C20.8876 25.0893 16.8985 29.055 11.9758 29.055V29.055Z" fill="#60CDFF"/>
</g>
<defs>
<clipPath id="clip0">
<rect width="33" height="33" fill="white"/>
</clipPath>
</defs>
</svg>
